<svg xmlns="http://www.w3.org/2000/svg" width="64" height="32" viewBox="0 0 64 32">
    <defs>
        <filter id="prefix__a">
            <feColorMatrix in="SourceGraphic" values="0 0 0 0 0.886275 0 0 0 0 0.682353 0 0 0 0 0.341176 0 0 0 1.000000 0"/>
        </filter>
    </defs>
    <g fill="none" fill-rule="evenodd">
        <g>
            <path stroke="#002642" stroke-linecap="round" stroke-linejoin="round" stroke-width=".656" d="M26.559 9.302c.776 1.821 1.206 3.826 1.206 5.932 0 8.37-6.788 15.159-15.159 15.159-5.191 0-9.77-2.613-12.503-6.59M5.981 1.596c2.002-.974 4.25-1.52 6.625-1.52 5.192 0 9.772 2.611 12.503 6.59" transform="translate(8.32 .64) translate(9.92)"/>
            <path stroke="#002642" stroke-linecap="round" stroke-linejoin="round" stroke-width=".64" d="M21.174 6.666L25.128 6.666 25.128 2.712M4.038 23.802L.084 23.802.084 27.756" transform="translate(8.32 .64) translate(9.92)"/>
            <g fill="#002642">
                <path d="M.874 8.24v.236c0 1.546 1.06 2.79 2.791 2.79 1.581 0 2.64-1.076 2.64-2.656 0-1.597-1.21-2.572-2.976-2.572h-.252V5.23h.067c1.362 0 2.59-.706 2.59-2.288 0-1.294-.942-2.135-2.237-2.135-1.413 0-2.27 1.077-2.27 2.304v.118H.37V3.11c0-1.749 1.244-3.11 3.127-3.11C5.616 0 6.61 1.496 6.61 2.941c0 1.885-1.581 2.607-1.581 2.607s2.152.657 2.152 3.095c0 1.917-1.345 3.43-3.515 3.43C1.06 12.074 0 10.072 0 8.476V8.24h.874zM15.523 3.885c0-2.068-1.16-3.078-2.81-3.078-1.647 0-2.807 1.01-2.807 3.078V8.19c0 2.069 1.16 3.077 2.808 3.077 1.649 0 2.809-1.008 2.809-3.077V3.885zm-6.491 0C9.032 1.33 10.612 0 12.714 0s3.683 1.329 3.683 3.885V8.19c0 2.555-1.581 3.884-3.683 3.884S9.032 10.745 9.032 8.19V3.885z" transform="translate(8.32 .64) translate(9.92) translate(4 9.086)"/>
            </g>
        </g>
        <g filter="url(#prefix__a)" transform="translate(8.32 .64)">
            <g>
                <path fill="#E2AE57" d="M12.043 8.017c.361.401.328.434-.073.073L8.917 5.343c-.401-.362-1.059-.362-1.46 0L4.405 8.09c-.402.361-.435.328-.073-.073l2.747-3.052c.361-.402.361-1.06 0-1.46L4.332.451C3.97.05 4.003.017 4.405.379l3.052 2.747c.401.361 1.059.361 1.46 0L11.97.379c.401-.362.434-.329.073.073L9.296 3.504c-.362.402-.362 1.059 0 1.46l2.747 3.053z" transform="translate(0 3.84)"/>
                <path fill="#E2AE57" d="M.085 1.556C.047 1.525.042 1.53.073 1.57l1.473 1.787c.032.039.02.086-.024.107l-.825.374c-.045.02-.042.037.008.038l.933.013c.05 0 .09.042.09.09l.013.934c.001.05.018.053.039.008l.374-.825c.02-.045.068-.056.106-.025l1.788 1.473c.038.032.044.026.012-.012L2.587 3.743c-.031-.038-.02-.086.025-.106l.825-.374c.045-.02.041-.038-.008-.038l-.933-.013c-.05 0-.09-.042-.091-.091l-.013-.933c0-.05-.018-.053-.038-.008l-.374.825c-.02.045-.069.056-.107.024L.085 1.556z" transform="translate(0 3.84)"/>
                <path fill="#1D1D1B" d="M10.954 9.728c-.605.565-2.168 2.015-2.767 2.015-.598 0-2.162-1.45-2.767-2.015.565.604 2.016 2.168 2.016 2.767 0 .598-1.45 2.162-2.016 2.766.605-.564 2.169-2.015 2.767-2.015.599 0 2.162 1.45 2.767 2.015-.565-.604-2.015-2.168-2.015-2.766 0-.599 1.45-2.163 2.015-2.767" transform="translate(0 3.84)"/>
            </g>
        </g>
    </g>
</svg>
