<svg xmlns="http://www.w3.org/2000/svg" width="64" height="32" viewBox="0 0 64 32">
    <defs>
        <filter id="prefix__a">
            <feColorMatrix in="SourceGraphic" values="0 0 0 0 0.886275 0 0 0 0 0.682353 0 0 0 0 0.341176 0 0 0 1.000000 0"/>
        </filter>
    </defs>
    <g fill="none" fill-rule="evenodd">
        <path stroke="#002642" stroke-linecap="round" stroke-linejoin="round" stroke-width=".64" d="M15.9 11.166l-2.076 2.5-.928 1.118h-.001l-.148.178h-.003l-.147-.178-.93-1.118-2.075-2.5H15.9zM13.155 9.47l.585 1.696-.994 3.797-.993-3.797.584-1.696h.818zM9.59 11.166l1.697-1.696h2.916l1.696 1.696H9.591zm7.271 7.71H8.63h8.233zm-8.175 0h8.182m1.32 0h1.525c.235 0 .461.093.627.26l4.89 4.89c.17.17.26.398.26.629 0 .115-.021.23-.066.34-.138.332-.462.55-.822.55H.889c-.36 0-.684-.218-.82-.55-.047-.11-.069-.225-.069-.34 0-.23.091-.46.26-.63l4.891-4.89c.167-.166.392-.26.63-.26h1.523m18.188 5.78v5.26-5.26zM0 24.655v5.26-5.26zm0 5.295c0 .114.023.23.068.34.138.332.462.549.821.549H24.604c.358 0 .683-.217.82-.55.046-.11.068-.225.068-.339m-.818-25.618c.06.086.11.177.147.274.12.3.127.638.011.948l-4.421 12.03c-.268.73-.937 1.231-1.702 1.292-.061.003-.124.006-.188.004l-.333-.004m-1.334 0H8.646m-1.342 0l-.333.004c-.064.002-.127 0-.189-.004-.764-.061-1.433-.561-1.702-1.292L.66 5.554c-.152-.408-.093-.865.158-1.222m-.148.274L2.102.966C2.332.385 2.895 0 3.522 0H21.97c.627 0 1.19.384 1.42.967l1.433 3.64H.67zm18.559 17.9H7.616h11.613zm-2.315 0c.797-.946 1.276-2.17 1.276-3.502 0-.043 0-.085-.002-.128h0c-.06-2.583-1.913-4.718-4.364-5.21m-2.156 0c-2.45.492-4.305 2.627-4.364 5.21-.002.043-.002.085-.002.128 0 1.333.479 2.556 1.278 3.502m1.858 0c-1.096-.74-1.815-1.998-1.815-3.42 0-.042 0-.085.002-.125l.004-.085c.107-2.134 1.831-3.838 3.971-3.91.035-.002.066-.004.099-.002.015-.002.03-.002.045-.002h.002c.015 0 .03 0 .046.002.034-.002.066 0 .098.001h.002c2.14.073 3.865 1.777 3.97 3.91.003.028.003.057.004.086.003.04.003.083.003.126 0 1.421-.72 2.678-1.817 3.42h-4.614z" transform="translate(19.2 .64)"/>
        <path fill="#002642" d="M19.282 26.4c.668 0 1.136.362 1.136.958 0 .57-.348.805-.502.83l-.104.012s.138.036.205.128l.72 1.244h-.315c-.273 0-.393-.042-.51-.243l-.468-.797c-.077-.125-.154-.147-.345-.147h-.339v1.187l-.584-.001v-3.167zm-5.444.002v.504h-1.63v.797h1.524v.525h-1.53v.83h1.636v.51H11.62v-3.166h2.218zm-5.219.005h.014V27h-.926c-.593 0-1.073.4-1.073.99l.006.111c.058.527.513.875 1.067.875h.926v.592h-1.02c-.876 0-1.587-.709-1.587-1.582 0-.87.71-1.578 1.587-1.578zm7.395-.005c.888 0 1.61.71 1.61 1.583 0 .872-.722 1.582-1.61 1.582-.887 0-1.608-.71-1.608-1.582 0-.872.721-1.583 1.608-1.583zM9.786 26.4v2.657h1.268v.51h-1.86V26.4h.592zm6.228.576c-.565 0-1.025.453-1.025 1.01 0 .554.46 1.003 1.025 1.003s1.022-.449 1.022-1.004c0-.556-.457-1.009-1.022-1.009zm3.291-.078h-.545v.988h.535c.339 0 .54-.182.54-.498 0-.312-.201-.49-.53-.49z" transform="translate(19.2 .64)"/>
        <g filter="url(#prefix__a)" transform="translate(19.2 .64)">
            <g>
                <path fill="#E2AE57" d="M12.657 15.623c.323.359.294.388-.065.065l-2.727-2.454c-.358-.322-.946-.322-1.304 0l-2.727 2.454c-.359.323-.388.294-.065-.065l2.454-2.726c.323-.36.323-.946 0-1.305L5.769 8.865c-.323-.358-.294-.388.065-.065l2.727 2.454c.358.323.946.323 1.304 0L12.592 8.8c.359-.323.388-.293.065.065l-2.454 2.727c-.323.359-.323.946 0 1.305l2.454 2.726zM2.605 7.692c-.84-.74-1.68-.74-2.519 0 .739-.84.739-1.68 0-2.519.84.739 1.68.739 2.519 0-.74.84-.74 1.68 0 2.519M12.881.23c-.54.505-1.937 1.8-2.471 1.8-.535 0-1.932-1.295-2.472-1.8.505.54 1.8 1.937 1.8 2.472 0 .534-1.295 1.931-1.8 2.471.54-.504 1.937-1.8 2.472-1.8.534 0 1.931 1.296 2.471 1.8-.504-.54-1.8-1.937-1.8-2.471 0-.535 1.296-1.932 1.8-2.472" transform="translate(17.92 3.52)"/>
            </g>
        </g>
    </g>
</svg>
