<svg xmlns="http://www.w3.org/2000/svg" width="64" height="32" viewBox="0 0 64 32">
    <defs>
        <filter id="prefix__a">
            <feColorMatrix in="SourceGraphic" values="0 0 0 0 0.886275 0 0 0 0 0.682353 0 0 0 0 0.341176 0 0 0 1.000000 0"/>
        </filter>
    </defs>
    <g fill="none" fill-rule="evenodd">
        <g>
            <path stroke="#002642" stroke-linecap="round" stroke-linejoin="round" stroke-width=".64" d="M13.498 2.89l-1.273 1.724-.016.018c-.18.216-.447.342-.728.342-.283 0-.55-.126-.73-.342-.003-.007-.008-.012-.013-.018L9.463 2.889" transform="translate(12.16 5.12)"/>
            <path stroke="#002642" stroke-linecap="round" stroke-linejoin="round" stroke-width=".64" d="M9.464 2.89L10.475 1.72 12.486 1.72 13.498 2.89" transform="translate(12.16 5.12)"/>
            <path stroke="#002642" stroke-linecap="round" stroke-linejoin="round" stroke-width=".64" d="M.186 8.05V.013h18.381c2.279 0 4.126 1.848 4.126 4.127v15.542H.186V16.38M24.985 19.683h14.899v-3.975c0-1.234-.439-2.428-1.236-3.37L34.021 6.88c-1.503-1.772-3.71-2.794-6.034-2.794h-3.002v15.597z" transform="translate(12.16 5.12)"/>
            <path stroke="#002642" stroke-linecap="round" stroke-linejoin="round" stroke-width=".64" d="M35.536 11.884h-8.471V6.165h.923c1.716 0 3.336.75 4.446 2.061l3.102 3.658zM39.883 16.478L24.986 16.478M35.536 11.884L27.065 11.884M39.446 13.619h-.733c-1.077 0-1.95.873-1.95 1.95v.909M31.894 19.683c0 .26.05.526.16.78.057.13.085.27.085.418 0 .583-.474 1.06-1.058 1.06-.583 0-1.057-.477-1.057-1.06 0-.148.028-.286.084-.415.109-.257.162-.522.162-.783" transform="translate(12.16 5.12)"/>
            <path stroke="#002642" stroke-linecap="round" stroke-linejoin="round" stroke-width=".64" d="M33.87 19.684c.156.365.244.772.244 1.197 0 1.677-1.357 3.035-3.032 3.035-1.677 0-3.034-1.358-3.034-3.035 0-.425.088-.832.246-1.197M7.746 19.683c0 .26.053.526.162.783.055.13.083.267.083.415 0 .583-.474 1.06-1.058 1.06-.583 0-1.06-.477-1.06-1.06 0-.145.03-.282.084-.406.112-.259.387-.527.385-.792" transform="translate(12.16 5.12)"/>
            <path stroke="#002642" stroke-linecap="round" stroke-linejoin="round" stroke-width=".64" d="M9.722 19.684c.157.365.245.772.245 1.197 0 1.677-1.358 3.035-3.034 3.035-1.675 0-3.035-1.358-3.035-3.035 0-.425.089-.832.248-1.197M22.693 19.683L24.986 19.683M22.693 17.488L24.986 17.488M11.481 1.719L11.481 4.974M12.29 4.522c1.691.369 2.958 1.875 2.958 3.678 0 2.08-1.688 3.767-3.767 3.767-2.08 0-3.767-1.687-3.767-3.767 0-1.803 1.264-3.31 2.957-3.678" transform="translate(12.16 5.12)"/>
            <path fill="#002642" d="M16.715 13.69c.637 0 1.085.346 1.085.916 0 .545-.332.768-.48.794l-.1.01s.132.034.196.123l.688 1.187h-.3c-.262 0-.376-.04-.489-.232l-.446-.76c-.074-.12-.147-.14-.329-.14h-.323v1.132l-.558-.002v-3.023zm-10.169.008v.565h-.884c-.566 0-1.025.382-1.025.946l.007.114c.06.498.493.828 1.018.828h.884v.565h-.975c-.836 0-1.515-.677-1.515-1.511 0-.83.68-1.507 1.515-1.507h.975zm4.97-.005v.483H9.96v.761h1.454v.5h-1.46v.794h1.562v.486H9.4v-3.024h2.117zm2.078 0c.847 0 1.537.679 1.537 1.512s-.69 1.511-1.537 1.511-1.536-.678-1.536-1.511c0-.833.69-1.511 1.536-1.511zm-5.947 0v2.536h1.21v.485H7.082v-3.022h.565zm5.947.549c-.54 0-.979.432-.979.963 0 .531.44.959.98.959.539 0 .975-.428.975-.96 0-.53-.436-.962-.976-.962zm3.143-.075h-.52v.944h.51c.323 0 .515-.174.515-.476 0-.298-.192-.468-.505-.468z" transform="translate(12.16 5.12)"/>
        </g>
        <g filter="url(#prefix__a)">
            <g>
                <path fill="#1D1D1B" d="M0 2.658c.563.603 2.158 2.28 2.158 2.757 0 .477-.498 1.078-.78 1.379.302-.282.902-.78 1.379-.78S4.912 7.61 5.514 8.172c-.563-.602-2.158-2.28-2.158-2.757 0-.477.498-1.077.78-1.378-.302.281-.902.78-1.38.78C2.28 4.816.603 3.22 0 2.657M16.745 2.52c.091.14.051.18-.089.09l-.887-.577c-.14-.091-.37-.091-.51 0l-.887.577c-.14.09-.18.05-.09-.09l.577-.887c.092-.14.092-.37 0-.51l-.576-.886c-.091-.14-.051-.18.09-.09l.886.577c.14.091.37.091.51 0l.887-.577c.14-.09.18-.05.09.09l-.577.886c-.091.14-.091.37 0 .51l.576.887z" transform="translate(2.56 7.68)"/>
                <path fill="#E2AE57" d="M13.3 12.514c.353.393.32.425-.072.072l-2.985-2.687c-.392-.353-1.035-.353-1.428 0l-2.984 2.687c-.393.353-.425.32-.072-.072L8.445 9.53c.354-.393.354-1.036 0-1.429L5.76 5.117c-.353-.393-.321-.425.072-.072l2.984 2.687c.393.353 1.036.353 1.428 0l2.985-2.687c.393-.353.425-.32.071.072L10.613 8.1c-.353.393-.353 1.036 0 1.429l2.686 2.984z" transform="translate(2.56 7.68)"/>
            </g>
        </g>
    </g>
</svg>
