<svg xmlns="http://www.w3.org/2000/svg" width="64" height="32" viewBox="0 0 64 32">
    <defs>
        <filter id="prefix__a">
            <feColorMatrix in="SourceGraphic" values="0 0 0 0 0.886275 0 0 0 0 0.682353 0 0 0 0 0.341176 0 0 0 1.000000 0"/>
        </filter>
    </defs>
    <g fill="none" fill-rule="evenodd">
        <g>
            <path stroke="#002642" stroke-linejoin="round" stroke-width=".64" d="M3.84 5.12L3.84 0 28.16 0 28.16 5.12M6.4 11.52c0 1.768-1.432 3.2-3.2 3.2-1.768 0-3.2-1.432-3.2-3.2M12.8 11.52c0 1.768-1.432 3.2-3.2 3.2-1.768 0-3.2-1.432-3.2-3.2M19.2 11.52c0 1.768-1.432 3.2-3.2 3.2-1.768 0-3.2-1.432-3.2-3.2M25.6 11.52c0 1.768-1.432 3.2-3.2 3.2-1.768 0-3.2-1.432-3.2-3.2M32 11.52c0 1.768-1.432 3.2-3.2 3.2-1.768 0-3.2-1.432-3.2-3.2M28.16 29.44L28.16 14.655M3.84 14.656L3.84 29.44" transform="translate(16 1.28)"/>
            <path stroke="#002642" stroke-linecap="round" stroke-linejoin="round" stroke-width=".64" d="M15.36 20.48L13.44 22.4M9.6 17.28L7.68 19.2M14.08 17.28L8.96 22.4" transform="translate(16 1.28)"/>
            <path stroke="#002642" stroke-linejoin="round" stroke-width=".64" d="M19.2 29.44L19.2 13.44" transform="translate(16 1.28)"/>
            <path stroke="#002642" stroke-linecap="round" stroke-linejoin="round" stroke-width=".64" d="M21.76 19.84L21.76 22.4" transform="translate(16 1.28)"/>
            <path stroke="#002642" stroke-linejoin="round" stroke-width=".64" d="M3.84 25.6L19.2 25.6" transform="translate(16 1.28)"/>
            <path stroke="#002642" stroke-linecap="round" stroke-linejoin="round" stroke-width=".64" d="M1.28 29.44L30.72 29.44" transform="translate(16 1.28)"/>
            <path stroke="#002642" stroke-linejoin="round" stroke-width=".64" d="M32 11.52L0 11.52 3.84 5.12 28.16 5.12zM23.297 5.12L25.6 11.52M6.4 11.52L8.703 5.12M18.433 5.12L19.2 11.52M12.8 11.52L13.567 5.12" transform="translate(16 1.28)"/>
            <path fill="#002642" d="M21.896.96c.668 0 1.136.362 1.136.958 0 .57-.348.805-.502.83l-.104.012s.138.036.205.128l.72 1.244h-.315c-.273 0-.393-.042-.511-.243l-.468-.797c-.076-.125-.153-.147-.344-.147h-.34v1.187l-.583-.001V.964zm-5.444.002v.504h-1.63v.797h1.523v.525h-1.53v.83h1.637v.51h-2.218V.963h2.218zm-5.219.005h.013v.592h-.925c-.593 0-1.073.4-1.073.99l.006.111c.058.527.513.875 1.067.875h.925v.592h-1.019c-.877 0-1.587-.709-1.587-1.582 0-.87.71-1.578 1.587-1.578zm7.395-.005c.887 0 1.61.71 1.61 1.583 0 .872-.723 1.582-1.61 1.582-.887 0-1.609-.71-1.609-1.582 0-.872.722-1.583 1.61-1.583zM12.4.96v2.657h1.268v.51h-1.86V.96h.592zm6.228.576c-.565 0-1.025.453-1.025 1.01 0 .554.46 1.003 1.025 1.003S19.65 3.1 19.65 2.545c0-.556-.457-1.009-1.022-1.009zm3.291-.078h-.545v.988h.535c.339 0 .54-.182.54-.498 0-.312-.201-.49-.53-.49z" transform="translate(16 1.28)"/>
        </g>
        <g filter="url(#prefix__a)">
            <g>
                <path fill="#E2AE57" d="M15.752 7.047c.323.359.294.388-.065.065L12.96 4.658c-.358-.322-.945-.322-1.304 0L8.929 7.112c-.358.323-.388.294-.065-.065l2.454-2.726c.323-.36.323-.946 0-1.305L8.864.289c-.323-.358-.293-.388.065-.065l2.727 2.454c.359.323.946.323 1.304 0L15.687.224c.359-.323.388-.293.065.065l-2.454 2.727c-.323.359-.323.946 0 1.305l2.454 2.726zM2.605 10.892c-.84-.74-1.68-.74-2.519 0 .739-.84.739-1.68 0-2.519.84.739 1.68.739 2.519 0-.74.84-.74 1.68 0 2.519M11.023 9.6c-.54.504-1.937 1.8-2.472 1.8-.534 0-1.931-1.295-2.471-1.8.504.54 1.8 1.937 1.8 2.471 0 .535-1.296 1.932-1.8 2.472.54-.505 1.937-1.8 2.471-1.8.535 0 1.932 1.295 2.472 1.8-.505-.54-1.8-1.937-1.8-2.472 0-.534 1.295-1.931 1.8-2.471" transform="translate(40.32 10.24)"/>
            </g>
        </g>
    </g>
</svg>
